<?xml version="1.0" encoding="UTF-8" standalone="no"?>
<!DOCTYPE svg PUBLIC "-//W3C//DTD SVG 1.1//EN" "http://www.w3.org/Graphics/SVG/1.1/DTD/svg11.dtd">
<!-- Created with Vectornator (http://vectornator.io/) -->
<svg height="1000.0pt" stroke-miterlimit="10" style="fill-rule:nonzero;clip-rule:evenodd;stroke-linecap:round;stroke-linejoin:round;" version="1.1" viewBox="0 0 1000 1000" width="1000.0pt" xml:space="preserve" xmlns="http://www.w3.org/2000/svg" xmlns:xlink="http://www.w3.org/1999/xlink">
<defs/>
<g id="Layer-1"/>
<g id="Layer-2">
<g opacity="1">
<g opacity="1">
<path d="M83.9462 508.692C79.9469 715.253 236.41 885.819 433.427 889.633C630.445 893.448 793.393 729.067 797.393 522.505C801.392 315.944 644.928 145.41 447.911 141.595C250.893 137.781 87.9455 302.13 83.9462 508.692ZM93.0662 507.573C96.3615 337.375 230.63 201.952 392.964 205.095C555.299 208.238 684.224 348.757 680.929 518.955C677.634 689.153 543.365 824.577 381.031 821.434C218.697 818.291 89.771 677.771 93.0662 507.573Z" fill="#7892f0" fill-rule="nonzero" opacity="1" stroke="none"/>
<path d="M701.596 527.286C631.074 525.921 575.064 464.875 576.496 390.936C577.927 316.997 636.258 258.165 706.78 259.531C777.303 260.896 833.312 321.942 831.881 395.881C830.449 469.82 772.119 528.652 701.596 527.286Z" fill="#7892f0" fill-rule="nonzero" opacity="1" stroke="none"/>
</g>
<path d="M20.4064 49.0651L64.1641 49.0651L64.1641 981.24L20.4064 981.24L20.4064 49.0651Z" fill="#3755bf" fill-rule="nonzero" opacity="1" stroke="#4e6bd5" stroke-linecap="butt" stroke-linejoin="round" stroke-width="2"/>
<path d="M779.232 56.7343L742.116 81.1352L943.635 517.732L770.259 969.522L808.787 990.555L991.324 514.887L990.477 514.438L779.232 56.7343Z" fill="#3755bf" fill-rule="nonzero" opacity="1" stroke="#4e6bd5" stroke-linecap="butt" stroke-linejoin="round" stroke-width="2"/>
</g>
</g>
</svg>
